<?xml version="1.0" standalone="no"?>
<!DOCTYPE svg PUBLIC "-//W3C//DTD SVG 20010904//EN"
 "http://www.w3.org/TR/2001/REC-SVG-20010904/DTD/svg10.dtd">
<svg version="1.0" xmlns="http://www.w3.org/2000/svg"
 width="204.000000pt" height="204.000000pt" viewBox="0 0 204.000000 204.000000"
 preserveAspectRatio="xMidYMid meet">
<metadata>
Created by potrace 1.14, written by Peter Selinger 2001-2017
</metadata>
<g transform="translate(0.000000,204.000000) scale(0.100000,-0.100000)"
fill="#000000" stroke="none">
<path d="M130 1973 c0 -5 4 -46 10 -93 5 -47 19 -200 30 -340 11 -140 36 -419
55 -620 19 -201 39 -428 45 -505 6 -77 13 -156 16 -176 l5 -36 117 -32 c64
-18 173 -49 242 -69 l125 -37 228 -3 229 -3 141 40 c78 22 195 54 259 72 l117
32 5 36 c3 20 8 72 11 116 9 127 23 278 54 615 17 173 35 376 41 450 19 238
40 474 46 518 l5 42 -890 0 c-490 0 -891 -3 -891 -7z m1460 -310 c0 -5 -9 -98
-19 -208 -11 -110 -22 -240 -26 -290 -15 -234 -59 -651 -69 -657 -5 -4 -55
-19 -111 -34 -55 -14 -154 -42 -221 -61 l-120 -36 -140 41 c-76 22 -178 50
-225 62 -48 12 -91 25 -97 29 -5 3 -15 62 -21 131 -6 69 -14 149 -17 178 l-6
52 121 0 121 0 0 -37 c0 -21 3 -61 6 -89 l7 -52 114 -33 c63 -18 121 -32 130
-32 8 0 67 15 132 33 l119 34 6 120 c4 67 9 129 12 138 5 17 -20 18 -383 20
l-387 3 -7 40 c-4 22 -9 75 -11 118 l-5 77 408 0 407 0 6 63 c4 34 9 83 12
110 l6 47 -430 0 -429 0 -11 111 c-7 61 -9 115 -6 120 6 11 1134 12 1134 2z"/>
</g>
</svg>
